<svg xmlns="http://www.w3.org/2000/svg" width="75" height="75" viewBox="0 0 75 75">
  <path id="note" d="M79.454,3.411c-1.1.162-47.329,7.067-48.313,7.212s-1.9.649-1.9,1.442V55.352a3.993,3.993,0,0,1-.562,2.109,6.205,6.205,0,0,1-3.772,2.29c-.773.2-1.828.379-3.069.595C16.192,61.32,6.75,62.978,6.75,69.685c0,5.607,5.248,8.131,9.77,8.564a14.747,14.747,0,0,0,1.664.126h0c1.57,0,8.435-.595,12-2.38,2.577-1.3,5.647-3.858,5.647-8.618V29.066a1.586,1.586,0,0,1,1.5-1.406L72.94,22.125c1.172-.18,2.249.5,2.249,1.406v23.6a4.146,4.146,0,0,1-.586,2.416,6.2,6.2,0,0,1-3.8,2.29c-.773.2-2.062.379-3.3.595-5.647.974-15.089,2.614-15.089,9.321,0,6.076,5.951,8.51,9.794,8.708a25.1,25.1,0,0,0,4.545-.162,32.541,32.541,0,0,0,8.552-2.344c4.194-1.857,6.443-4.832,6.443-8.69V4.8C81.727,4.006,80.86,3.194,79.454,3.411Z" transform="translate(-6.75 -3.375)" fill="#1a1a1a"/>
</svg>
