<svg viewBox="109.2 117.407 273.047 222.203" width="273.047" height="222.203">
  <path class="bg" fill-rule="evenodd" clip-rule="evenodd" fill="var(--IconColor,#fff)" d="M 109.2 314.426 C 139.672 317.489 167.122 309.923 191.544 291.326 C 179.64 290.763 168.855 287.111 159.346 279.958 C 149.859 272.82 143.296 263.569 139.525 252.156 C 147.966 253.701 156.179 253.457 164.619 251.269 C 148.872 247.604 136.739 239.204 128.268 225.727 C 122.512 216.569 119.852 206.493 119.868 195.477 C 127.711 199.73 135.959 202.12 145.123 202.492 C 142.623 200.697 140.436 199.05 138.446 197.165 C 125.992 185.37 119.951 170.867 120.388 153.749 C 120.616 144.826 123.045 136.436 127.366 128.603 C 127.801 127.815 128.012 127.592 128.702 128.428 C 142.963 145.717 160.12 159.406 180.118 169.499 C 194.867 176.943 210.426 181.929 226.759 184.48 C 231.97 185.293 237.216 185.857 242.481 186.168 C 243.236 186.212 243.509 186.145 243.335 185.226 C 239.617 165.531 244.505 148.266 258.486 133.883 C 267.652 124.454 279.009 119.027 292.139 117.729 C 310.04 115.959 325.434 121.498 338.261 134.125 C 338.801 134.657 339.222 135.086 340.187 134.882 C 352.16 132.362 363.431 128.047 374 121.888 C 374.194 121.774 374.403 121.685 374.842 121.466 C 370.403 134.704 362.372 144.819 350.854 152.276 C 361.673 151.046 372.016 148.148 382.247 143.695 C 381.958 144.216 381.825 144.511 381.643 144.775 C 374.38 155.347 365.602 164.461 355.277 172.072 C 354.584 172.583 354.372 173.06 354.409 173.937 C 354.805 183.223 354.28 192.464 352.961 201.666 C 350.329 220.007 344.724 237.4 336.306 253.889 C 329.197 267.818 320.31 280.505 309.529 291.85 C 292.774 309.481 272.966 322.417 250.023 330.518 C 239.028 334.4 227.72 336.944 216.145 338.344 C 208.953 339.215 201.734 339.655 194.499 339.606 C 164.007 339.399 135.804 331.244 109.947 315.046 C 109.688 314.885 109.346 314.807 109.2 314.426 Z"></path>
</svg>