<svg viewBox="74.388 190.35 72.716 82.789">
    <path d="M138.046 233.644s.21-3.694-.389-4.841a4.809 4.809 0 00-2.685-2.228l-1.624-.445.456-1.677 1.014.276a.66.66 0 00.809-.463l.487-1.788a.659.659 0 00-.464-.809l-3.556-.968a.66.66 0 00-.809.463l-.487 1.787a.66.66 0 00.463.809l.954.259-.456 1.675-5.759-1.576.454-1.667 1.013.276a.66.66 0 00.809-.463l.486-1.788a.659.659 0 00-.462-.809l-3.556-.968a.658.658 0 00-.809.463l-.487 1.788a.659.659 0 00.463.809l.954.26-.453 1.665-5.759-1.577.45-1.656 1.013.276a.66.66 0 00.81-.463l.487-1.788a.659.659 0 00-.464-.809l-3.556-.968a.66.66 0 00-.809.463l-.486 1.788a.659.659 0 00.462.809l.954.26-.449 1.655-5.76-1.576.448-1.646 1.014.276a.66.66 0 00.81-.463l.486-1.787a.66.66 0 00-.463-.809l-3.554-.97a.658.658 0 00-.809.463l-.487 1.787a.66.66 0 00.463.809l.954.259-.448 1.644-5.76-1.576.445-1.636 1.014.276a.66.66 0 00.809-.463l.487-1.787a.66.66 0 00-.463-.809l-3.556-.968a.658.658 0 00-.809.463l-.487 1.788a.66.66 0 00.463.809l.954.259-.445 1.634-5.561-1.527.443-1.626 1.013.276a.66.66 0 00.809-.463l.487-1.788a.658.658 0 00-.463-.809l-3.556-.968a.658.658 0 00-.809.463l-.487 1.787a.66.66 0 00.463.809l.954.26-.442 1.624-4.224-1.156s-5.673-1.607-8.678 3.325a9.992 9.992 0 00-.547 9.137 9.003 9.003 0 005.3 5.16 9.166 9.166 0 008.873-1.067 3.962 3.962 0 012.2-.611 3.75 3.75 0 013.011 2.119 83.193 83.193 0 008.565 11.743c10.223 11.11 4.6 2.931 14.689.338 3.393-.872 6.946 1.31 6.946 1.31l4.567 3.137c2.713-4.512 6.491-12.574 6.4-12.361zm-41.8-12.757c-.807 1.176-2.584 1.038-3.2-.249-.615-1.287.394-2.758 1.816-2.647.324.025.635.135.903.319a1.851 1.851 0 01.49 2.577zm7.2 2.061c-.806 1.176-2.584 1.039-3.2-.248-.615-1.287.392-2.757 1.815-2.647.324.025.636.135.904.319a1.85 1.85 0 01.489 2.576zm7.2 2.062c-.806 1.176-2.584 1.039-3.2-.248-.615-1.287.392-2.757 1.815-2.647.324.025.636.135.904.319a1.853 1.853 0 01.488 2.576zm7.342 2.035c-.806 1.176-2.584 1.039-3.2-.248-.615-1.287.392-2.757 1.815-2.647.324.025.636.135.904.319a1.854 1.854 0 01.488 2.576zm7.341 2.035c-.806 1.176-2.584 1.039-3.2-.248-.615-1.287.392-2.757 1.815-2.647.324.025.636.135.904.319a1.852 1.852 0 01.488 2.576zm7.342 2.035c-.806 1.176-2.584 1.039-3.2-.248-.615-1.287.392-2.757 1.815-2.647.324.025.636.135.904.319a1.852 1.852 0 01.488 2.576z" fill="var(--LogoAlt,#f3f3f3)"/>
    <g fill="var(--Primary,#82212c)">
    <path data-name="Path 8" d="M122.278 226.984a1.853 1.853 0 102.576-.481 1.854 1.854 0 00-2.576.48z"/>
    <path data-name="Path 9" d="M129.62 229.019a1.853 1.853 0 102.576-.481 1.853 1.853 0 00-2.576.48z"/>
    <path data-name="Path 10" d="M147.104 216.278c0-.147 0-.293-.008-.44v-.113q-.006-.211-.014-.42c0-.038 0-.076-.005-.114a20.09 20.09 0 00-.022-.428v-.04q-.04-.705-.116-1.393c0-.03-.006-.057-.009-.086l-.047-.393-.017-.134q-.025-.19-.052-.378l-.02-.131a24.006 24.006 0 00-.06-.387c0-.02-.007-.04-.01-.061q-.107-.646-.245-1.274l-.025-.117q-.04-.177-.082-.351l-.036-.148q-.04-.172-.086-.341a3.241 3.241 0 00-.038-.143c-.03-.116-.062-.233-.095-.348l-.023-.08q-.168-.586-.365-1.156l-.048-.142q-.055-.156-.112-.311l-.06-.161-.116-.3c-.02-.052-.042-.1-.062-.156l-.125-.307c-.014-.035-.03-.07-.044-.1q-.146-.343-.3-.68l-.03-.068c-.047-.1-.093-.193-.14-.29l-.079-.16-.139-.273-.088-.168a22.59 22.59 0 00-.234-.431l-.15-.268-.078-.131q-.157-.27-.324-.535c-.028-.045-.056-.091-.085-.135a17.469 17.469 0 00-.162-.248l-.112-.17-.162-.237-.12-.174-.166-.232-.127-.172-.17-.228-.127-.162q-.163-.21-.33-.414l-.14-.17-.18-.21-.15-.174-.182-.2c-.052-.06-.1-.117-.158-.174s-.123-.133-.185-.2-.112-.117-.168-.176l-.185-.192c-.062-.064-.135-.134-.2-.2-.1-.1-.207-.2-.31-.3l-.2-.185-.196-.177-.193-.173-.2-.174-.2-.171-.2-.17-.215-.174-.2-.157c-.11-.086-.22-.173-.333-.258l-.24-.181-.252-.186-.207-.148-.237-.166-.214-.147-.244-.163-.214-.141a31.315 31.315 0 00-.268-.171l-.2-.125q-.224-.14-.453-.275l-.183-.106c-.1-.06-.2-.118-.306-.176l-.22-.122-.282-.155-.229-.122-.289-.15-.227-.116-.326-.162-.2-.1q-.255-.122-.515-.242l-.188-.085a38.8 38.8 0 00-.358-.16l-.23-.1-.329-.14-.242-.1-.338-.135-.235-.092-.392-.15-.189-.07q-.285-.1-.575-.206l-.2-.067-.408-.138-.244-.08-.374-.118-.254-.08-.388-.115-.243-.071q-.232-.067-.466-.131l-.17-.048q-.317-.086-.639-.168l-.206-.051-.455-.112-.257-.061-.42-.1-.267-.06-.439-.093-.25-.052-.548-.11-.147-.028q-.347-.066-.7-.128l-.219-.037-.5-.084-.272-.053-.465-.071-.28-.041-.49-.068-.257-.035q-.318-.042-.64-.08l-.112-.014q-.377-.045-.76-.085l-.237-.024-.542-.054-.29-.026-.509-.044-.295-.024-.54-.04-.266-.02-.745-.045h-.065q-.408-.023-.82-.041l-.259-.011-.578-.022-.308-.01-.549-.015-.314-.007-.588-.01h-1.14a76.34 76.34 0 00-7.993.4q-.832.089-1.639.195-.738.1-1.455.21t-1.414.243q-.7.129-1.373.273t-1.33.3q-1.31.319-2.54.7-.614.189-1.208.393-.3.1-.589.208c-21.974 7.963-22.139 31.475-2.114 61.4 16.477 24.624 26.826 24.624 43.3 0q.422-.63.83-1.256l.163-.248q.407-.625.8-1.246l.072-.115q.853-1.344 1.65-2.67v-.008l-4.575-3.134s-3.552-2.182-6.946-1.31c-10.085 2.593-4.467 10.772-14.689-.338a83.182 83.182 0 01-8.565-11.743 3.753 3.753 0 00-3.01-2.118 3.965 3.965 0 00-2.2.61 9.167 9.167 0 01-8.874 1.068 9 9 0 01-5.3-5.16 9.991 9.991 0 01.547-9.137c3.005-4.932 8.678-3.325 8.678-3.325l4.224 1.156.442-1.624-.954-.26a.659.659 0 01-.463-.81l.487-1.787a.659.659 0 01.81-.463l3.555.968a.659.659 0 01.463.809l-.487 1.788a.66.66 0 01-.809.463l-1.013-.276-.443 1.626 5.561 1.522.444-1.634-.954-.26a.66.66 0 01-.463-.808l.487-1.788a.659.659 0 01.81-.463l3.555.968a.66.66 0 01.463.809l-.487 1.787a.659.659 0 01-.809.463l-1.014-.276-.445 1.636 5.76 1.576.448-1.644-.954-.26a.66.66 0 01-.463-.808l.487-1.787a.66.66 0 01.81-.463l3.555.968a.661.661 0 01.463.81l-.487 1.787a.661.661 0 01-.809.463l-1.014-.276-.448 1.646 5.76 1.576.45-1.654-.955-.26a.659.659 0 01-.462-.81l.487-1.787a.659.659 0 01.81-.463l3.555.968a.66.66 0 01.464.809l-.487 1.787a.661.661 0 01-.81.464l-1.013-.276-.45 1.656 5.76 1.577.452-1.665-.954-.26a.659.659 0 01-.463-.808l.487-1.788a.66.66 0 01.81-.463l3.556.968a.659.659 0 01.462.809l-.486 1.788a.66.66 0 01-.809.463l-1.014-.276-.454 1.667 5.76 1.576.455-1.675-.954-.26a.659.659 0 01-.463-.81l.487-1.786a.66.66 0 01.81-.463l3.555.968a.659.659 0 01.463.809l-.486 1.788a.66.66 0 01-.809.463l-1.014-.276-.456 1.677 1.624.445a4.81 4.81 0 012.684 2.228c.6 1.147.39 4.84.39 4.84l4.271 3.12q.136-.318.268-.634l.01-.022q.8-1.92 1.46-3.778l.011-.034q.548-1.546 1-3.05v-.014l.17-.576.013-.05q.424-1.478.75-2.913c0-.015.008-.031.01-.046l.12-.536c0-.023.008-.045.014-.068q.3-1.41.508-2.774c0-.024.008-.048.011-.071.025-.166.05-.332.071-.5 0-.028.008-.056.011-.084q.035-.254.066-.506v-.006q.132-1.075.2-2.12l.007-.094.027-.458c0-.033 0-.066.005-.1q.012-.234.021-.468v-.023q.028-.768.022-1.52a.265.265 0 00.035-.043z"/>
    <path data-name="Path 11" d="M107.595 222.915a1.853 1.853 0 102.576-.481 1.854 1.854 0 00-2.576.48z"/>
    <path data-name="Path 12" d="M114.936 224.95a1.854 1.854 0 102.577-.481 1.855 1.855 0 00-2.577.48z"/>
    <path data-name="Path 13" d="M93.198 218.79a1.853 1.853 0 102.576-.481 1.854 1.854 0 00-2.576.482z"/>
    <path data-name="Path 14" d="M100.396 220.853a1.853 1.853 0 102.576-.481 1.853 1.853 0 00-2.576.48z"/>
    </g>
</svg>