<svg xmlns="http://www.w3.org/2000/svg" width="75" height="60.004" viewBox="0 0 75 60.004"><path d="M26.251,30a15,15,0,1,0-15-15A15,15,0,0,0,26.251,30Zm10.5,3.75H34.794a20.4,20.4,0,0,1-17.087,0H15.751A15.755,15.755,0,0,0,0,49.5v4.875A5.627,5.627,0,0,0,5.625,60H37.841a5.628,5.628,0,0,1-.3-2.5l.8-7.137.141-1.3.926-.926,9.059-9.059a15.591,15.591,0,0,0-11.707-5.332ZM42.06,50.779l-.8,7.149a1.866,1.866,0,0,0,2.063,2.063l7.137-.8L66.624,43.033l-8.4-8.4L42.06,50.779ZM74.183,31.513l-4.442-4.442a2.808,2.808,0,0,0-3.961,0L61.35,31.5l-.48.48,8.414,8.4,4.9-4.9a2.822,2.822,0,0,0,0-3.973Z"/></svg>