<svg xmlns="http://www.w3.org/2000/svg" width="75" height="55" viewBox="0 0 75 55"><path d="M.072,54.2V8.939q0-.079.217-1.493L24.807,30.232.361,55.768A7.172,7.172,0,0,1,.072,54.2ZM3.327,4.3a2.9,2.9,0,0,1,1.23-.236H70.588a3.8,3.8,0,0,1,1.3.236L47.3,27.168,44.045,30l-6.437,5.736L31.171,30l-3.255-2.829ZM3.4,58.832,28.061,33.139l9.547,8.407,9.547-8.407L71.817,58.832a3.227,3.227,0,0,1-1.23.236H4.556A3.047,3.047,0,0,1,3.4,58.832Zm47.011-28.6L74.855,7.447a5.061,5.061,0,0,1,.217,1.493V54.2a6.506,6.506,0,0,1-.217,1.571Z" transform="translate(-0.072 -4.068)"/></svg>