<svg xmlns="http://www.w3.org/2000/svg" width="41.51" height="41.523" viewBox="0 0 41.51 41.523">
  <g id="Icon_ionic-ios-quote" data-name="Icon ionic-ios-quote" transform="translate(-6.75 -6.75)">
    <path id="Path_23" data-name="Path 23" d="M21.408,6.75H12.977A6.245,6.245,0,0,0,6.75,12.977v16.6a6.245,6.245,0,0,0,6.227,6.227H18a1.044,1.044,0,0,1,1.038,1.116,15.823,15.823,0,0,1-4.06,9.612,1.038,1.038,0,0,0,.765,1.738h5.176a1.008,1.008,0,0,0,.817-.4,20.064,20.064,0,0,0,3.7-12.181V10.784A3.932,3.932,0,0,0,21.408,6.75Z" fill="#fff"/>
    <path id="Path_24" data-name="Path 24" d="M33.783,6.75H25.352a6.245,6.245,0,0,0-6.227,6.227v16.6a6.245,6.245,0,0,0,6.227,6.227h5.02a1.044,1.044,0,0,1,1.038,1.116,15.823,15.823,0,0,1-4.06,9.612,1.038,1.038,0,0,0,.765,1.738H33.29a1.008,1.008,0,0,0,.817-.4,20.064,20.064,0,0,0,3.7-12.181V10.784A3.932,3.932,0,0,0,33.783,6.75Z" transform="translate(10.456)" fill="#fff"/>
  </g>
</svg>
