<svg xmlns="http://www.w3.org/2000/svg" width="257.717" height="257.721" viewBox="0 0 257.717 257.721">
  <g id="facebook" transform="translate(-163.668 -38.825)">
    <path id="Subtraction_1" data-name="Subtraction 1" d="M-637.677-449.454H-761.108a14.13,14.13,0,0,1-10.059-4.167,14.133,14.133,0,0,1-4.165-10.058V-692.951a14.131,14.131,0,0,1,4.166-10.058,14.131,14.131,0,0,1,10.058-4.165h229.27a14.131,14.131,0,0,1,10.057,4.166,14.131,14.131,0,0,1,4.166,10.058v229.271a14.132,14.132,0,0,1-4.166,10.058,14.13,14.13,0,0,1-10.057,4.166h-65.672v-99.8h33.5l5.016-38.9h-38.515v-24.831c0-6.526,1.1-10.748,3.582-13.69a13,13,0,0,1,5.868-3.87,29.841,29.841,0,0,1,9.823-1.375l20.6-.008v-34.789a275.554,275.554,0,0,0-30.012-1.533c-14.9,0-27.394,4.573-36.147,13.224a43.9,43.9,0,0,0-10.236,16.113,63.347,63.347,0,0,0-3.641,22.076v28.685h-33.585v38.9h33.585v99.8Z" transform="translate(939 746)" fill="var(--IconColor,#fff)"/>
  </g>
</svg>
