<svg xmlns="http://www.w3.org/2000/svg" width="72.712" height="82.791"><g data-name="Group 77"><g fill="#82212c"><path data-name="Path 8" d="M47.886 36.641a1.853 1.853 0 102.576-.481 1.854 1.854 0 00-2.576.481z"/><path data-name="Path 9" d="M55.228 38.676a1.853 1.853 0 102.576-.481 1.853 1.853 0 00-2.576.481z"/><path data-name="Path 10" d="M72.712 25.935c0-.147 0-.293-.008-.439v-.114q-.006-.211-.014-.419c0-.039 0-.077-.005-.115a20.09 20.09 0 00-.022-.428v-.039q-.041-.706-.116-1.394c0-.029-.006-.057-.009-.086l-.047-.393-.017-.134q-.025-.19-.052-.378l-.02-.131a24.006 24.006 0 00-.06-.387c0-.02-.007-.04-.01-.061q-.107-.646-.245-1.274l-.025-.117q-.04-.177-.082-.351l-.036-.148q-.041-.172-.086-.341a3.241 3.241 0 00-.038-.143c-.031-.116-.062-.233-.095-.348l-.023-.079q-.168-.587-.365-1.157l-.048-.142q-.055-.156-.112-.311l-.06-.161-.116-.3c-.02-.052-.042-.1-.062-.156l-.125-.307c-.014-.035-.03-.069-.044-.1q-.146-.343-.3-.68l-.031-.068c-.046-.1-.092-.193-.14-.29l-.078-.16-.139-.273-.088-.168a22.59 22.59 0 00-.234-.431l-.151-.268-.077-.131q-.157-.27-.324-.535c-.028-.045-.056-.091-.085-.135a17.469 17.469 0 00-.162-.248l-.112-.17-.162-.237-.121-.174-.165-.232-.127-.172c-.057-.076-.113-.153-.171-.228l-.126-.162q-.163-.209-.331-.414l-.139-.17-.18-.21-.15-.174-.182-.2c-.052-.059-.1-.117-.158-.174s-.123-.133-.185-.2-.112-.117-.168-.176l-.185-.192c-.062-.064-.135-.134-.2-.2-.1-.1-.207-.2-.311-.3l-.2-.185c-.064-.06-.13-.118-.195-.177l-.193-.173-.2-.174-.2-.171-.2-.169-.215-.175-.2-.157c-.11-.086-.221-.173-.333-.258l-.241-.181-.251-.186-.207-.148-.237-.166-.214-.147-.244-.163-.214-.141a31.315 31.315 0 00-.268-.171l-.2-.125q-.224-.139-.453-.275l-.183-.106c-.1-.059-.2-.118-.306-.176l-.22-.122-.282-.155-.229-.122-.289-.15-.227-.116-.326-.162-.2-.1q-.255-.122-.515-.242l-.188-.085a38.8 38.8 0 00-.358-.16l-.231-.1-.328-.139-.242-.1-.338-.136-.235-.092-.392-.149-.189-.071q-.285-.1-.575-.206l-.2-.067-.408-.138-.244-.079-.374-.119-.254-.079-.388-.116-.243-.071q-.232-.067-.466-.131l-.171-.048q-.316-.086-.638-.168l-.206-.051-.455-.112-.257-.061-.421-.1-.266-.059-.439-.094-.25-.052-.548-.109-.147-.029q-.347-.066-.7-.128l-.219-.037-.5-.084-.272-.053-.465-.071-.28-.041-.49-.068-.257-.035q-.318-.042-.64-.08L45.16.485Q44.783.44 44.399.4l-.236-.024-.542-.054-.29-.026-.509-.044-.295-.024-.541-.04-.265-.019q-.37-.024-.745-.046h-.065q-.408-.023-.82-.041l-.259-.011-.578-.022-.308-.01-.549-.015-.314-.007-.588-.009h-1.141a76.34 76.34 0 00-7.992.4q-.832.088-1.639.194-.738.1-1.455.211t-1.414.242q-.7.129-1.373.273t-1.331.3q-1.31.319-2.539.7-.614.189-1.208.393-.3.1-.589.208C-5.16 10.892-5.325 34.404 14.7 64.329c16.477 24.624 26.826 24.624 43.3 0q.422-.63.83-1.256l.163-.248q.407-.625.8-1.246l.072-.115q.853-1.344 1.65-2.67v-.008l-4.575-3.134s-3.552-2.182-6.946-1.31c-10.085 2.593-4.467 10.772-14.689-.338a83.182 83.182 0 01-8.565-11.743 3.753 3.753 0 00-3.011-2.118 3.965 3.965 0 00-2.2.611 9.167 9.167 0 01-8.873 1.067 9 9 0 01-5.3-5.16 9.991 9.991 0 01.547-9.137c3.005-4.932 8.678-3.325 8.678-3.325l4.224 1.156.442-1.624-.954-.26a.659.659 0 01-.463-.809l.487-1.788a.659.659 0 01.809-.463l3.556.968a.659.659 0 01.463.809l-.487 1.788a.66.66 0 01-.809.463l-1.013-.276-.443 1.626 5.561 1.522.444-1.634-.954-.259a.66.66 0 01-.463-.809l.487-1.788a.659.659 0 01.809-.463l3.556.968a.66.66 0 01.463.809l-.487 1.787a.659.659 0 01-.809.463l-1.014-.276-.445 1.636 5.76 1.576.448-1.644-.954-.259a.66.66 0 01-.463-.809l.487-1.787a.66.66 0 01.809-.463l3.556.968a.661.661 0 01.463.81l-.487 1.787a.661.661 0 01-.809.463l-1.014-.276-.448 1.646 5.76 1.576.449-1.654-.954-.26a.659.659 0 01-.462-.809l.487-1.788a.659.659 0 01.809-.463l3.556.968a.66.66 0 01.464.809l-.487 1.787a.661.661 0 01-.81.464l-1.013-.276-.45 1.656 5.759 1.577.453-1.665-.954-.259a.659.659 0 01-.463-.809l.487-1.788a.66.66 0 01.809-.463l3.557.968a.659.659 0 01.462.809l-.486 1.788a.66.66 0 01-.809.463l-1.014-.276-.454 1.667 5.759 1.576.456-1.675-.954-.259a.659.659 0 01-.463-.81l.487-1.787a.66.66 0 01.809-.463l3.556.968a.659.659 0 01.463.809l-.486 1.788a.66.66 0 01-.809.463l-1.014-.276-.456 1.677 1.624.445a4.81 4.81 0 012.684 2.228c.6 1.147.389 4.841.389 4.841l4.272 3.12q.136-.319.268-.635l.009-.022q.8-1.919 1.46-3.778l.012-.034q.548-1.546 1-3.049v-.015q.086-.289.169-.576l.014-.05q.424-1.478.75-2.913c0-.015.008-.031.01-.046q.061-.269.119-.536c0-.023.009-.045.015-.068q.3-1.41.508-2.774c0-.024.008-.048.011-.071.025-.166.049-.332.071-.5 0-.028.008-.056.011-.084q.035-.254.066-.506v-.006q.132-1.075.2-2.12l.007-.094.027-.458c0-.033 0-.066.005-.1q.012-.234.021-.468v-.023q.028-.768.022-1.519a.265.265 0 00.035-.044z"/><path data-name="Path 11" d="M33.203 32.572a1.853 1.853 0 102.576-.481 1.854 1.854 0 00-2.576.481z"/><path data-name="Path 12" d="M40.544 34.607a1.854 1.854 0 102.577-.481 1.855 1.855 0 00-2.577.481z"/><path data-name="Path 13" d="M18.806 28.448a1.853 1.853 0 102.576-.482 1.854 1.854 0 00-2.576.482z"/><path data-name="Path 14" d="M26.004 30.51a1.853 1.853 0 102.576-.481 1.853 1.853 0 00-2.576.481z"/></g><path d="M63.654 43.301s.21-3.694-.389-4.841a4.814 4.814 0 00-2.685-2.228l-1.624-.445.456-1.677 1.014.276a.66.66 0 00.809-.463l.487-1.788a.66.66 0 00-.464-.809l-3.556-.968a.66.66 0 00-.809.463l-.487 1.787a.659.659 0 00.463.809l.954.259-.456 1.675-5.759-1.576.454-1.667 1.013.276a.66.66 0 00.809-.463l.486-1.788a.659.659 0 00-.462-.809l-3.556-.968a.659.659 0 00-.809.463l-.487 1.788a.658.658 0 00.463.809l.954.26-.453 1.665-5.759-1.577.45-1.656 1.013.276a.66.66 0 00.81-.463l.487-1.788a.66.66 0 00-.464-.809l-3.556-.968a.66.66 0 00-.809.463l-.486 1.788a.658.658 0 00.462.809l.954.26-.449 1.655-5.76-1.576.448-1.646 1.014.276a.661.661 0 00.81-.463l.486-1.787a.66.66 0 00-.463-.809l-3.554-.97a.659.659 0 00-.809.463l-.487 1.787a.66.66 0 00.463.809l.954.259-.448 1.644-5.76-1.576.445-1.636 1.014.276a.659.659 0 00.809-.463l.487-1.787a.66.66 0 00-.463-.809l-3.556-.968a.659.659 0 00-.809.463l-.487 1.788a.659.659 0 00.463.809l.954.259-.445 1.634-5.561-1.527.443-1.626 1.013.276a.659.659 0 00.809-.463l.487-1.788a.659.659 0 00-.463-.809l-3.556-.968a.659.659 0 00-.809.463l-.487 1.787a.659.659 0 00.463.809l.954.26-.442 1.624-4.224-1.156s-5.673-1.607-8.678 3.325a9.991 9.991 0 00-.547 9.137 9 9 0 005.3 5.16 9.165 9.165 0 008.873-1.067 3.965 3.965 0 012.2-.611 3.753 3.753 0 013.011 2.119 83.131 83.131 0 008.565 11.743c10.223 11.11 4.6 2.931 14.689.338 3.393-.872 6.946 1.31 6.946 1.31l4.567 3.137c2.713-4.512 6.491-12.574 6.4-12.361zm-41.8-12.757a1.853 1.853 0 11-.481-2.577 1.852 1.852 0 01.49 2.577zm7.2 2.061a1.853 1.853 0 11-.481-2.576 1.852 1.852 0 01.489 2.576zm7.2 2.062a1.853 1.853 0 11-.481-2.576 1.853 1.853 0 01.488 2.576zm7.342 2.035a1.853 1.853 0 11-.481-2.576 1.854 1.854 0 01.488 2.576zm7.341 2.035a1.853 1.853 0 11-.481-2.576 1.852 1.852 0 01.488 2.576zm7.342 2.035a1.853 1.853 0 11-.481-2.576 1.852 1.852 0 01.488 2.576z" fill="#f3f3f3"/></g></svg>