<svg xmlns="http://www.w3.org/2000/svg" width="72.712" height="82.791" viewBox="0 0 72.712 82.791"><path d="M305.913,298.342a1.853,1.853,0,1,0,2.576-.481A1.854,1.854,0,0,0,305.913,298.342Z" transform="translate(-258.027 -261.701)" fill="#82212c"/><path d="M325.362,303.732a1.853,1.853,0,1,0,2.576-.481A1.853,1.853,0,0,0,325.362,303.732Z" transform="translate(-270.134 -265.056)" fill="#82212c"/><path d="M252.308,228.541c0-.147,0-.293-.008-.439,0-.038,0-.076,0-.114q-.006-.211-.014-.419c0-.039,0-.077-.005-.115-.006-.143-.013-.286-.022-.428,0-.013,0-.026,0-.039q-.041-.706-.116-1.394c0-.029-.006-.057-.009-.086-.015-.131-.031-.262-.047-.393-.006-.045-.011-.089-.017-.134q-.025-.19-.052-.378c-.006-.044-.013-.087-.02-.131-.019-.129-.039-.259-.06-.387,0-.02-.007-.04-.01-.061q-.107-.646-.245-1.274l-.025-.117q-.04-.177-.082-.351l-.036-.148q-.041-.172-.086-.341c-.012-.048-.025-.1-.038-.143-.031-.116-.062-.233-.095-.348l-.023-.079q-.168-.587-.365-1.157c-.016-.047-.032-.094-.048-.142q-.055-.156-.112-.311c-.02-.054-.039-.107-.06-.161-.038-.1-.077-.2-.116-.3-.02-.052-.042-.1-.062-.156q-.062-.154-.125-.307c-.014-.035-.03-.069-.044-.1q-.146-.343-.3-.68l-.031-.068c-.046-.1-.092-.193-.14-.29-.026-.053-.052-.107-.078-.16-.046-.091-.092-.182-.139-.273l-.088-.168c-.047-.089-.095-.179-.143-.267-.03-.055-.06-.11-.091-.164-.05-.089-.1-.179-.151-.268l-.077-.131q-.157-.27-.324-.535c-.028-.045-.056-.091-.085-.135-.053-.083-.107-.165-.162-.248l-.112-.17c-.054-.079-.108-.159-.162-.237l-.121-.174c-.055-.077-.11-.155-.165-.232-.042-.058-.085-.115-.127-.172-.057-.076-.113-.153-.171-.228-.042-.055-.084-.108-.126-.162q-.163-.209-.331-.414c-.046-.057-.092-.114-.139-.17s-.119-.14-.18-.21l-.15-.174-.182-.2c-.052-.059-.1-.117-.158-.174s-.123-.133-.185-.2-.112-.117-.168-.176-.123-.128-.185-.192-.135-.134-.2-.2c-.1-.1-.207-.2-.311-.3l-.2-.185c-.064-.06-.13-.118-.195-.177l-.193-.173q-.1-.088-.2-.174l-.2-.171-.2-.169-.215-.175-.2-.157c-.11-.086-.221-.173-.333-.258l-.241-.181c-.083-.062-.167-.124-.251-.186l-.207-.148-.237-.166-.214-.147-.244-.163-.214-.141c-.088-.057-.178-.114-.268-.171l-.2-.125q-.224-.139-.453-.275l-.183-.106c-.1-.059-.2-.118-.306-.176l-.22-.122-.282-.155-.229-.122-.289-.15-.227-.116c-.108-.054-.217-.108-.326-.162l-.2-.1q-.255-.122-.515-.242l-.188-.085c-.119-.054-.238-.107-.358-.16l-.231-.1-.328-.139-.242-.1-.338-.136-.235-.092-.392-.149-.189-.071q-.285-.1-.575-.206l-.2-.067-.408-.138-.244-.079-.374-.119-.254-.079-.388-.116-.243-.071q-.232-.067-.466-.131l-.171-.048q-.316-.086-.638-.168l-.206-.051-.455-.112-.257-.061-.421-.1-.266-.059-.439-.094-.25-.052c-.181-.037-.365-.073-.548-.109l-.147-.029q-.347-.066-.7-.128l-.219-.037-.5-.084L227,203.4l-.465-.071-.28-.041-.49-.068-.257-.035q-.318-.042-.64-.08l-.112-.014q-.377-.045-.761-.085l-.236-.024-.542-.054-.29-.026-.509-.044-.295-.024-.541-.04-.265-.019q-.37-.024-.745-.046l-.065,0q-.408-.023-.82-.041l-.259-.011-.578-.022-.308-.01-.549-.015-.314-.007-.588-.009-.273,0c-.288,0-.576,0-.868,0a76.34,76.34,0,0,0-7.992.4q-.832.088-1.639.194-.738.1-1.455.211t-1.414.242q-.7.129-1.373.273t-1.331.3q-1.31.319-2.539.7-.614.189-1.208.393-.3.1-.589.208c-21.974,7.963-22.139,31.475-2.114,61.4,16.477,24.624,26.826,24.624,43.3,0q.422-.63.83-1.256l.163-.248q.407-.625.8-1.246l.072-.115q.853-1.344,1.65-2.67l0-.008-4.575-3.134s-3.552-2.182-6.946-1.31c-10.085,2.593-4.467,10.772-14.689-.338a83.182,83.182,0,0,1-8.565-11.743,3.753,3.753,0,0,0-3.011-2.118,3.965,3.965,0,0,0-2.2.611,9.167,9.167,0,0,1-8.873,1.067,9,9,0,0,1-5.3-5.16,9.991,9.991,0,0,1,.547-9.137c3.005-4.932,8.678-3.325,8.678-3.325l4.224,1.156.442-1.624-.954-.26a.659.659,0,0,1-.463-.809l.487-1.788a.659.659,0,0,1,.809-.463l3.556.968a.659.659,0,0,1,.463.809l-.487,1.788a.66.66,0,0,1-.809.463l-1.013-.276-.443,1.626,5.561,1.522.444-1.634-.954-.259a.66.66,0,0,1-.463-.809l.487-1.788a.659.659,0,0,1,.809-.463l3.556.968a.66.66,0,0,1,.463.809l-.487,1.787a.659.659,0,0,1-.809.463l-1.014-.276-.445,1.636,5.76,1.576.448-1.644-.954-.259a.66.66,0,0,1-.463-.809l.487-1.787a.66.66,0,0,1,.809-.463l3.556.968a.661.661,0,0,1,.463.81l-.487,1.787a.661.661,0,0,1-.809.463l-1.014-.276-.448,1.646,5.76,1.576.449-1.654-.954-.26a.659.659,0,0,1-.462-.809l.487-1.788a.659.659,0,0,1,.809-.463l3.556.968a.66.66,0,0,1,.464.809l-.487,1.787a.661.661,0,0,1-.81.464l-1.013-.276-.45,1.656,5.759,1.577.453-1.665-.954-.259a.659.659,0,0,1-.463-.809l.487-1.788a.66.66,0,0,1,.809-.463l3.557.968a.659.659,0,0,1,.462.809l-.486,1.788a.66.66,0,0,1-.809.463l-1.014-.276-.454,1.667,5.759,1.576.456-1.675-.954-.259a.659.659,0,0,1-.463-.81l.487-1.787a.66.66,0,0,1,.809-.463l3.556.968a.659.659,0,0,1,.463.809l-.486,1.788a.66.66,0,0,1-.809.463l-1.014-.276-.456,1.677,1.624.445a4.81,4.81,0,0,1,2.684,2.228c.6,1.147.389,4.841.389,4.841l4.272,3.12q.136-.319.268-.635l.009-.022q.8-1.919,1.46-3.778l.012-.034q.548-1.546,1-3.049l0-.015q.086-.289.169-.576l.014-.05q.424-1.478.75-2.913c0-.015.008-.031.01-.046q.061-.269.119-.536c0-.023.009-.045.015-.068q.3-1.41.508-2.774c0-.024.008-.048.011-.071.025-.166.049-.332.071-.5,0-.028.008-.056.011-.084q.035-.254.066-.506s0,0,0-.006q.132-1.075.2-2.12l.007-.094c.01-.153.019-.306.027-.458,0-.033,0-.066.005-.1q.012-.234.021-.468c0-.008,0-.015,0-.023q.028-.768.022-1.519A.265.265,0,0,0,252.308,228.541Z" transform="translate(-179.596 -202.606)" fill="#82212c"/><path d="M267.016,287.561a1.853,1.853,0,1,0,2.576-.481A1.854,1.854,0,0,0,267.016,287.561Z" transform="translate(-233.813 -254.989)" fill="#82212c"/><path d="M286.465,292.951a1.854,1.854,0,1,0,2.577-.481A1.855,1.855,0,0,0,286.465,292.951Z" transform="translate(-245.921 -258.344)" fill="#82212c"/><path d="M228.878,276.637a1.853,1.853,0,1,0,2.576-.482A1.854,1.854,0,0,0,228.878,276.637Z" transform="translate(-210.072 -248.189)" fill="#82212c"/><path d="M247.947,282.1a1.853,1.853,0,1,0,2.576-.481A1.853,1.853,0,0,0,247.947,282.1Z" transform="translate(-221.943 -251.59)" fill="#82212c"/></svg>