<svg viewBox="65.134 46.457 383.952 383.952">
  <path class="bg" fill-rule="evenodd" clip-rule="evenodd" fill="var(--IconColor,#fff)" d="M 65.134 393.665 L 65.134 83.203 C 66.453 82.474 66.134 81.029 66.447 79.925 C 71.41 62.419 82.846 51.702 100.39 47.301 C 101.156 47.109 102.213 47.601 102.629 46.457 L 411.591 46.457 C 411.815 47.251 412.508 47.093 413.084 47.223 C 431.73 51.45 443.321 62.923 448.177 81.347 C 448.408 82.223 447.841 83.422 449.086 83.952 L 449.086 393.664 C 447.765 394.39 448.084 395.836 447.77 396.937 C 442.733 414.575 431.215 425.357 413.457 429.611 C 412.792 429.77 411.906 429.426 411.592 430.409 L 101.88 430.409 C 101.41 429.182 100.186 429.535 99.321 429.301 C 81.956 424.596 70.952 413.585 66.248 396.221 C 66.013 395.357 66.363 394.132 65.134 393.665 Z M 257.084 386.111 C 300.951 386.111 344.818 386.123 388.687 386.102 C 398.353 386.098 404.766 380.005 404.772 370.706 C 404.806 317.84 404.775 264.974 404.835 212.108 C 404.838 209.751 404.333 208.86 401.773 208.904 C 392.777 209.059 383.775 209.067 374.78 208.905 C 371.877 208.853 371.534 209.69 372.175 212.343 C 375.677 226.844 376.133 241.517 373.965 256.25 C 364.521 320.423 303.746 365.067 239.204 355.294 C 171.757 345.08 126.779 279.256 141.956 212.755 C 142.774 209.171 141.79 208.851 138.744 208.909 C 130.374 209.068 121.993 209.139 113.627 208.88 C 110.181 208.773 109.345 209.766 109.353 213.181 C 109.468 265.047 109.433 316.913 109.434 368.779 C 109.434 380.356 115.128 386.109 126.608 386.11 C 170.099 386.115 213.592 386.112 257.084 386.111 Z M 330.878 238.419 C 330.875 197.591 297.804 164.573 257.006 164.666 C 216.276 164.758 183.509 197.491 183.342 238.253 C 183.176 279.01 216.163 312.113 257.027 312.195 C 297.817 312.278 330.88 279.248 330.878 238.419 Z M 368.089 90.729 C 360.969 90.729 353.849 90.681 346.729 90.741 C 337.298 90.819 331.123 96.719 331.027 106.094 C 330.879 120.457 330.881 134.824 331.024 149.188 C 331.116 158.521 336.986 164.419 346.306 164.518 C 360.669 164.669 375.035 164.663 389.399 164.52 C 398.801 164.428 404.754 158.236 404.778 148.86 C 404.816 134.745 404.815 120.63 404.778 106.515 C 404.755 97.018 398.599 90.835 389.074 90.743 C 382.079 90.674 375.084 90.729 368.089 90.729 Z"></path>
</svg>