<svg xmlns="http://www.w3.org/2000/svg" width="1.5rem" height="1.5rem" viewBox="0 0 75 48.214">
  <path fill="#fff" id="person" d="M53.386,27.964A10.167,10.167,0,0,0,63.614,17.92a10.229,10.229,0,0,0-20.455,0A10.167,10.167,0,0,0,53.386,27.964Zm-27.273,0A10.167,10.167,0,0,0,36.341,17.92a10.229,10.229,0,0,0-20.455,0A10.167,10.167,0,0,0,26.114,27.964Zm0,7.366C18.1,35.33,2.25,39.18,2.25,47.049v9.04H50.464v-9.04C50.464,39.18,34.125,35.33,26.114,35.33Zm27.273,1.842a18.193,18.193,0,0,0-2.922.167c3.922,2.846,5.357,4.688,5.357,9.71v9.04H77.25v-9.04C77.25,39.18,61.4,37.172,53.386,37.172Z" transform="translate(-2.25 -7.875)"/>
</svg>
