<svg id="Icon_ionic-ios-quote" data-name="Icon ionic-ios-quote" xmlns="http://www.w3.org/2000/svg" width="34.746" height="34.757" viewBox="0 0 34.746 34.757">
  <path id="Path_23" data-name="Path 23" d="M10.116,6.75h7.058a5.227,5.227,0,0,1,5.212,5.212v13.9a5.227,5.227,0,0,1-5.212,5.212h-4.2a.874.874,0,0,0-.869.934,13.244,13.244,0,0,0,3.4,8.046.869.869,0,0,1-.641,1.455H10.529a.844.844,0,0,1-.684-.337,16.794,16.794,0,0,1-3.095-10.2V10.127A3.291,3.291,0,0,1,10.116,6.75Z" transform="translate(12.36 -6.75)" fill="var(--IconColor, #fff)"/>
  <path id="Path_24" data-name="Path 24" d="M22.491,6.75h7.058a5.227,5.227,0,0,1,5.212,5.212v13.9a5.227,5.227,0,0,1-5.212,5.212h-4.2a.874.874,0,0,0-.869.934,13.244,13.244,0,0,0,3.4,8.046.869.869,0,0,1-.641,1.455H22.9a.844.844,0,0,1-.684-.337,16.794,16.794,0,0,1-3.095-10.2V10.127A3.291,3.291,0,0,1,22.491,6.75Z" transform="translate(-19.125 -6.75)" fill="var(--IconColor, #fff)"/>
</svg>
