<svg xmlns="http://www.w3.org/2000/svg" width="344.94" height="49.159" viewBox="0 0 344.94 49.159">
  <g id="Group_91" data-name="Group 91" transform="translate(-93 -1676.466)">
    <path id="Icon_ionic-ios-star" data-name="Icon ionic-ios-star" d="M53.181,20.391H35.8L30.516,4.628a1.914,1.914,0,0,0-3.592,0L21.642,20.391H4.141A1.9,1.9,0,0,0,2.25,22.282a1.389,1.389,0,0,0,.035.319,1.817,1.817,0,0,0,.792,1.335L17.364,34,11.881,49.946a1.9,1.9,0,0,0,.65,2.127,1.829,1.829,0,0,0,1.064.461,2.317,2.317,0,0,0,1.182-.425L28.72,42.17l13.944,9.938a2.214,2.214,0,0,0,1.182.425,1.7,1.7,0,0,0,1.052-.461,1.873,1.873,0,0,0,.65-2.127L40.064,34,54.233,23.842l.343-.3a1.982,1.982,0,0,0,.614-1.264A2,2,0,0,0,53.181,20.391Z" transform="translate(90.75 1673.091)" fill="#FFD700"/>
    <path id="Icon_ionic-ios-star-2" data-name="Icon ionic-ios-star" d="M53.181,20.391H35.8L30.516,4.628a1.914,1.914,0,0,0-3.592,0L21.642,20.391H4.141A1.9,1.9,0,0,0,2.25,22.282a1.389,1.389,0,0,0,.035.319,1.817,1.817,0,0,0,.792,1.335L17.364,34,11.881,49.946a1.9,1.9,0,0,0,.65,2.127,1.829,1.829,0,0,0,1.064.461,2.317,2.317,0,0,0,1.182-.425L28.72,42.17l13.944,9.938a2.214,2.214,0,0,0,1.182.425,1.7,1.7,0,0,0,1.052-.461,1.873,1.873,0,0,0,.65-2.127L40.064,34,54.233,23.842l.343-.3a1.982,1.982,0,0,0,.614-1.264A2,2,0,0,0,53.181,20.391Z" transform="translate(163.75 1673.091)" fill="#FFD700"/>
    <path id="Icon_ionic-ios-star-3" data-name="Icon ionic-ios-star" d="M53.181,20.391H35.8L30.516,4.628a1.914,1.914,0,0,0-3.592,0L21.642,20.391H4.141A1.9,1.9,0,0,0,2.25,22.282a1.389,1.389,0,0,0,.035.319,1.817,1.817,0,0,0,.792,1.335L17.364,34,11.881,49.946a1.9,1.9,0,0,0,.65,2.127,1.829,1.829,0,0,0,1.064.461,2.317,2.317,0,0,0,1.182-.425L28.72,42.17l13.944,9.938a2.214,2.214,0,0,0,1.182.425,1.7,1.7,0,0,0,1.052-.461,1.873,1.873,0,0,0,.65-2.127L40.064,34,54.233,23.842l.343-.3a1.982,1.982,0,0,0,.614-1.264A2,2,0,0,0,53.181,20.391Z" transform="translate(236.75 1673.091)" fill="#FFD700"/>
    <path id="Icon_ionic-ios-star-4" data-name="Icon ionic-ios-star" d="M53.181,20.391H35.8L30.516,4.628a1.914,1.914,0,0,0-3.592,0L21.642,20.391H4.141A1.9,1.9,0,0,0,2.25,22.282a1.389,1.389,0,0,0,.035.319,1.817,1.817,0,0,0,.792,1.335L17.364,34,11.881,49.946a1.9,1.9,0,0,0,.65,2.127,1.829,1.829,0,0,0,1.064.461,2.317,2.317,0,0,0,1.182-.425L28.72,42.17l13.944,9.938a2.214,2.214,0,0,0,1.182.425,1.7,1.7,0,0,0,1.052-.461,1.873,1.873,0,0,0,.65-2.127L40.064,34,54.233,23.842l.343-.3a1.982,1.982,0,0,0,.614-1.264A2,2,0,0,0,53.181,20.391Z" transform="translate(309.75 1673.091)" fill="#FFD700"/>
    <path id="Icon_ionic-ios-star-5" data-name="Icon ionic-ios-star" d="M53.181,20.391H35.8L30.516,4.628a1.914,1.914,0,0,0-3.592,0L21.642,20.391H4.141A1.9,1.9,0,0,0,2.25,22.282a1.389,1.389,0,0,0,.035.319,1.817,1.817,0,0,0,.792,1.335L17.364,34,11.881,49.946a1.9,1.9,0,0,0,.65,2.127,1.829,1.829,0,0,0,1.064.461,2.317,2.317,0,0,0,1.182-.425L28.72,42.17l13.944,9.938a2.214,2.214,0,0,0,1.182.425,1.7,1.7,0,0,0,1.052-.461,1.873,1.873,0,0,0,.65-2.127L40.064,34,54.233,23.842l.343-.3a1.982,1.982,0,0,0,.614-1.264A2,2,0,0,0,53.181,20.391Z" transform="translate(382.75 1673.091)" fill="#FFD700"/>
  </g>
</svg>
