<svg viewBox="32.852 -2.961 338.098 237.868" width="338.098" height="237.868">
  <path class="bg" fill-rule="evenodd" clip-rule="evenodd" fill="var(--Secondary, #fff)" d="M187.458 18.219c12.951 0 25.905-.169 38.854.043 15.858.26 31.717.718 47.566 1.321 12.267.467 24.543.933 36.764 2.229 13.301 1.412 24.436 6.88 32.284 17.963 4.414 6.233 6.534 13.524 8.437 20.845 2.104 8.097 2.531 16.415 3.332 24.685 2.267 23.419 1.749 46.908 1.664 70.379-.055 15.099-1.286 30.144-2.894 45.155-.986 9.209-3.228 18.09-7.044 26.521-5.905 13.046-16.396 20.4-30.099 23.357-8.587 1.852-17.394 1.891-26.132 2.383-16.169.91-32.353 1.424-48.543 1.8-10.905.252-21.812.514-32.722.56-8.763.037-17.525.262-26.286.188-14.104-.119-28.206-.36-42.307-.652a2559.611 2559.611 0 01-36.336-.997c-10.235-.357-20.487-.62-30.677-1.676-6.229-.646-12.483-1.318-18.558-3.037-14.073-3.982-23.525-12.781-28.316-26.669-2.964-8.591-4.761-17.381-5.568-26.415-1.072-12.015-2.189-24.037-2.281-36.098-.171-22.426-.734-44.867.997-67.263.712-9.22 1.19-18.475 2.914-27.586 1.23-6.501 3.075-12.836 5.796-18.885 5.847-12.996 16.183-20.38 29.781-23.55 5.867-1.368 11.891-1.604 17.88-1.984 14.563-.927 29.145-1.446 43.728-1.937 8.093-.272 16.191-.427 24.288-.549 14.492-.219 28.985-.374 43.477-.555l.001.424zm-30.931 69.737c-.245-.367-.601-.538-1.03-.581-.234-.142-.464-.291-.705-.423-2.21-1.218-2.211-1.217-2.211 1.234v92.285c.933-.452 1.665-.785 2.377-1.155 20.205-10.471 40.41-20.939 60.608-31.423 5.654-2.935 11.285-5.915 16.927-8.874l10.984-5.532c-.29-.631-.765-.689-1.132-.88-24.551-12.82-49.102-25.64-73.664-38.44-4.038-2.104-7.997-4.366-12.165-6.218l.011.007z" transform="matrix(1, 0, 0, 1, 14.480254, -20.756105)"></path>
  <path class="fg" fill-rule="evenodd" clip-rule="evenodd" fill="transparent" d="M232.494 139.02c-5.642 2.959-11.272 5.939-16.927 8.874-20.198 10.483-40.403 20.952-60.608 31.423-.713.37-1.444.703-2.377 1.155v-2.193-90.092c0-2.452 0-2.452 2.211-1.234.24.132.47.281.705.423.087.648.553.624 1.03.581l-.009-.006c.056.819.798.995 1.315 1.341 20.468 13.7 40.939 27.396 61.425 41.07 4.384 2.926 8.822 5.773 13.235 8.658z" transform="matrix(1, 0, 0, 1, 14.480254, -20.756105)"></path>
  <path fill-rule="evenodd" clip-rule="evenodd" fill="transparent" d="M232.494 139.02c-4.413-2.885-8.852-5.732-13.236-8.659a58588.566 58588.566 0 01-61.425-41.07c-.517-.346-1.259-.522-1.315-1.341 4.168 1.852 8.127 4.114 12.165 6.218 24.562 12.8 49.113 25.62 73.664 38.44.367.191.842.249 1.132.88l-10.985 5.532z" transform="matrix(1, 0, 0, 1, 14.480254, -20.756105)"></path>
  <path fill-rule="evenodd" clip-rule="evenodd" fill="transparent" d="M156.527 87.956c-.477.043-.943.068-1.03-.581.429.042.785.214 1.03.581z" transform="matrix(1, 0, 0, 1, 14.480254, -20.756105)"></path>
</svg>